<svg width="170" height="60" viewBox="0 0 170 60" fill="none" xmlns="http://www.w3.org/2000/svg">
<g clip-path="url(#clip0_11_645)">
<path d="M20.6873 36.3498V23.6504H25.5842C28.8618 23.6504 30.4984 24.9106 30.4984 27.4271C30.4984 29.0307 29.691 30.1172 28.0717 30.6867V30.7796L31.4535 36.3538H28.2106L25.5061 31.3532H23.5178V36.3538H20.6917L20.6873 36.3498ZM23.4917 29.6285H25.2412C26.0617 29.6285 26.6565 29.4588 27.0211 29.1195C27.3858 28.7802 27.5681 28.2592 27.5681 27.5563C27.5681 26.8535 27.3858 26.3648 27.0211 26.0578C26.6565 25.7508 26.0574 25.5933 25.2195 25.5933H23.4874V29.6285H23.4917Z" fill="#353535"/>
<path d="M33.0033 36.3498V23.6504H41.7595V25.6296H35.8294V28.8529H40.4658V30.816H35.8294V34.3342H41.8984V36.3538H33.0033V36.3498Z" fill="#353535"/>
<path d="M47.7851 36.556C46.0747 36.556 44.6811 36.2975 43.6045 35.7764V33.7568C44.9025 34.2738 46.2092 34.5364 47.5246 34.5364C49.183 34.5364 50.0121 33.9789 50.0121 32.8681C50.0121 32.3754 49.8775 32.0078 49.6041 31.7654C49.3306 31.5231 48.8313 31.3171 48.102 31.1434L46.8691 30.8485C45.7925 30.59 44.9894 30.1821 44.451 29.6246C43.9127 29.0672 43.6436 28.2351 43.6436 27.1243C43.6436 26.0136 44.043 25.1047 44.8374 24.4383C45.6319 23.7718 46.7953 23.4365 48.3191 23.4365C49.8428 23.4365 51.0801 23.6668 52.0612 24.1232V26.1105C50.7197 25.6783 49.5346 25.4642 48.5014 25.4642C47.0688 25.4642 46.3525 25.957 46.3525 26.9466C46.3525 27.3909 46.4784 27.7262 46.7302 27.9564C46.982 28.1867 47.4335 28.3806 48.0846 28.5381L49.2785 28.8329C50.4853 29.1278 51.3753 29.5519 51.944 30.1013C52.5127 30.6506 52.7992 31.4786 52.7992 32.5935C52.7992 33.8537 52.3781 34.8272 51.5359 35.5179C50.6937 36.2086 49.4434 36.556 47.7851 36.556Z" fill="#353535"/>
<path d="M64.9979 34.8956C63.8302 36.0023 62.2977 36.5517 60.4006 36.5517C58.5035 36.5517 56.9884 36.0104 55.8554 34.9319C54.7223 33.8535 54.1536 32.2822 54.1536 30.2181V29.794C54.1536 27.7582 54.7353 26.191 55.9031 25.0923C57.0709 23.9937 58.6034 23.4443 60.5005 23.4443C62.3976 23.4443 63.9126 23.9816 65.0457 25.056C66.1787 26.1304 66.7474 27.7017 66.7474 29.7779V30.1858C66.7474 32.2216 66.1657 33.7929 64.9979 34.8996V34.8956ZM60.4614 34.5522C61.5467 34.5522 62.3758 34.1847 62.9402 33.4495C63.5046 32.7144 63.7867 31.7046 63.7867 30.4241V29.794C63.7867 28.348 63.5176 27.2655 62.9793 26.5344C62.441 25.8073 61.5814 25.4357 60.4006 25.4236C59.3414 25.4236 58.5296 25.7911 57.9739 26.5263C57.4182 27.2614 57.136 28.2712 57.136 29.5517V30.1979C57.136 33.0981 58.243 34.5482 60.457 34.5482L60.4614 34.5522Z" fill="#353535"/>
<path d="M68.8573 36.3498V23.6504H73.7541C77.0317 23.6504 78.6684 24.9106 78.6684 27.4271C78.6684 29.0307 77.8609 30.1172 76.2416 30.6867V30.7796L79.6234 36.3538H76.3805L73.676 31.3532H71.6877V36.3538H68.8616L68.8573 36.3498ZM71.6617 29.6285H73.4112C74.2317 29.6285 74.8264 29.4588 75.1911 29.1195C75.5557 28.7802 75.7381 28.2592 75.7381 27.5563C75.7381 26.8535 75.5557 26.3648 75.1911 26.0578C74.8264 25.7508 74.2273 25.5933 73.3895 25.5933H71.6573V29.6285H71.6617Z" fill="#353535"/>
<path d="M83.9994 36.3498V25.6296H80.2008V23.6504H90.6457V25.6296H86.8038V36.3498H83.9994Z" fill="#353535"/>
<path d="M97.1141 36.3498V23.6504H105.788V25.6296H99.9402V29.168H104.498V31.1674H99.9402V36.3498H97.1141Z" fill="#353535"/>
<path d="M107.898 36.3498V23.6504H110.741V36.3498H107.898Z" fill="#353535"/>
<path d="M116.432 36.3498V25.6296H112.634V23.6504H123.079V25.6296H119.237V36.3498H116.432Z" fill="#353535"/>
<path d="M124.889 36.3498V23.6504H128.054L133.328 32.0924H133.389V23.6504H135.877V36.3498H133.09L127.437 27.2413H127.377V36.3498H124.889Z" fill="#353535"/>
<path d="M138.659 36.3498V23.6504H147.416V25.6296H141.485V28.8529H146.122V30.816H141.485V34.3342H147.554V36.3538H138.659V36.3498Z" fill="#353535"/>
<path d="M153.441 36.556C151.731 36.556 150.337 36.2975 149.261 35.7764V33.7568C150.563 34.2738 151.865 34.5364 153.181 34.5364C154.839 34.5364 155.668 33.9789 155.668 32.8681C155.668 32.3754 155.534 32.0078 155.26 31.7654C154.987 31.5231 154.487 31.3171 153.758 31.1434L152.525 30.8485C151.449 30.59 150.645 30.1821 150.107 29.6246C149.569 29.0672 149.3 28.2351 149.3 27.1243C149.3 26.0136 149.699 25.1047 150.493 24.4383C151.288 23.7718 152.451 23.4365 153.975 23.4365C155.499 23.4365 156.736 23.6668 157.717 24.1232V26.1105C156.376 25.6783 155.191 25.4642 154.157 25.4642C152.725 25.4642 152.009 25.957 152.009 26.9466C152.009 27.3909 152.134 27.7262 152.386 27.9564C152.638 28.1867 153.09 28.3806 153.741 28.5381L154.935 28.8329C156.141 29.1278 157.031 29.5519 157.6 30.1013C158.169 30.6506 158.455 31.4786 158.455 32.5935C158.455 33.8537 158.034 34.8272 157.192 35.5179C156.35 36.2086 155.099 36.556 153.441 36.556Z" fill="#353535"/>
<path d="M163.986 36.556C162.275 36.556 160.882 36.2975 159.805 35.7764V33.7568C161.103 34.2738 162.41 34.5364 163.725 34.5364C165.384 34.5364 166.213 33.9789 166.213 32.8681C166.213 32.3754 166.078 32.0078 165.805 31.7654C165.531 31.5231 165.032 31.3171 164.303 31.1434L163.07 30.8485C161.998 30.59 161.19 30.1821 160.652 29.6246C160.114 29.0672 159.844 28.2351 159.844 27.1243C159.844 26.0136 160.244 25.1047 161.038 24.4383C161.833 23.7718 162.996 23.4365 164.52 23.4365C166.044 23.4365 167.281 23.6668 168.262 24.1232V26.1105C166.921 25.6783 165.735 25.4642 164.702 25.4642C163.27 25.4642 162.553 25.957 162.553 26.9466C162.553 27.3909 162.679 27.7262 162.931 27.9564C163.183 28.1867 163.634 28.3806 164.285 28.5381L165.479 28.8329C166.686 29.1278 167.576 29.5519 168.145 30.1013C168.713 30.6506 169 31.4786 169 32.5935C169 33.8537 168.579 34.8272 167.737 35.5179C166.895 36.2086 165.644 36.556 163.986 36.556Z" fill="#353535"/>
<path d="M2.50205 34.1689C1.67289 34.1689 1 34.795 1 35.5665C1 36.338 1.67289 36.9641 2.50205 36.9641C3.33122 36.9641 4.00411 36.338 4.00411 35.5665C4.00411 34.795 3.33122 34.1689 2.50205 34.1689Z" fill="#353535"/>
<path d="M9.09199 31.3572C9.38719 31.3249 9.67371 31.2602 9.94721 31.1754C11.2583 30.7675 12.3045 29.8142 12.769 28.6024V28.5943C12.934 28.1581 13.0295 27.6855 13.0295 27.1927C13.0295 26.6999 12.9426 26.2395 12.7733 25.8032V25.7952C12.1829 24.2522 10.6461 23.1212 8.81416 23.0081C8.71431 23 8.6188 23 8.51895 23C8.41911 23 8.31926 23 8.21941 23.0081H7.01256C7.01256 23.0081 2.61493 23.004 2.5064 23.004C2.39787 23.004 2.28934 23.0162 2.18515 23.0364C1.71196 23.1333 1.32125 23.4362 1.13024 23.8402C1.04775 24.0098 1 24.2037 1 24.4016C1 25.1771 1.67289 25.8032 2.5064 25.8032C2.71477 25.8032 8.34965 25.8032 8.34965 25.8032H8.69694C9.44363 25.884 10.0254 26.4737 10.0254 27.1927C10.0254 27.9642 9.35246 28.5903 8.5233 28.5903H7.0169C6.92139 28.5903 5.71454 28.5984 5.51919 28.5984C4.69002 28.5984 4.01713 29.2245 4.01713 29.996C4.01713 30.4403 4.23853 30.8361 4.58583 31.0906C4.62924 31.1431 10.4638 36.584 10.4638 36.584C11.0499 37.1293 12.0049 37.1293 12.591 36.584C13.1771 36.0387 13.1771 35.1541 12.591 34.6047L9.09199 31.3531V31.3572Z" fill="#353535"/>
</g>
<defs>
<clipPath id="clip0_11_645">
<rect width="168" height="14" fill="white" transform="translate(1 23)"/>
</clipPath>
</defs>
</svg>
