<svg width="170" height="60" viewBox="0 0 170 60" fill="none" xmlns="http://www.w3.org/2000/svg">
<g clip-path="url(#clip0_5_1275)">
<path d="M118.643 28.6165H117.019V23.467H118.643C119.007 23.439 119.374 23.4847 119.719 23.6015C120.064 23.7183 120.381 23.9035 120.649 24.1454C120.918 24.3874 121.132 24.6808 121.278 25.0075C121.424 25.334 121.5 25.6867 121.5 26.0431C121.5 26.3996 121.424 26.7522 121.278 27.0788C121.132 27.4054 120.918 27.6989 120.649 27.9408C120.381 28.1828 120.064 28.3679 119.719 28.4847C119.374 28.6015 119.007 28.6472 118.643 28.6192M118.501 24.1319H117.817V27.9563H118.501C119.693 27.9563 120.678 27.3562 120.678 26.0431C120.678 24.7301 119.693 24.1319 118.501 24.1319Z" fill="black"/>
<path d="M122.785 28.617V23.4668H125.629V24.1403H123.584V25.6962H125.299V26.363H123.584V27.9454H125.919V28.6177L122.785 28.617Z" fill="black"/>
<path d="M128.64 26.3561H127.844V28.6161H127.051V23.4666H128.64C128.843 23.4524 129.047 23.4793 129.24 23.5455C129.433 23.6118 129.609 23.716 129.758 23.8517C129.907 23.9874 130.026 24.1516 130.107 24.3341C130.189 24.5166 130.231 24.7136 130.231 24.9126C130.231 25.1117 130.189 25.3086 130.107 25.4912C130.026 25.6737 129.907 25.8379 129.758 25.9736C129.609 26.1093 129.433 26.2134 129.24 26.2798C129.047 26.346 128.843 26.3729 128.64 26.3587M128.498 24.1314H127.844V25.6958H128.498C128.612 25.7096 128.727 25.6997 128.836 25.6666C128.945 25.6336 129.047 25.5783 129.132 25.5043C129.219 25.4304 129.287 25.3394 129.334 25.2376C129.381 25.1358 129.405 25.0254 129.405 24.9136C129.405 24.8019 129.381 24.6915 129.334 24.5897C129.287 24.4878 129.219 24.3969 129.132 24.323C129.047 24.249 128.945 24.1937 128.836 24.1606C128.727 24.1276 128.612 24.1176 128.498 24.1314Z" fill="black"/>
<path d="M134.356 28.6171L133.786 27.2833H131.736L131.164 28.6171H130.379L132.63 23.3936H132.919L135.168 28.6171H134.356ZM132.989 25.4041C132.904 25.1976 132.829 24.9868 132.767 24.7726H132.748C132.69 24.9884 132.617 25.1996 132.526 25.4041L132.003 26.6632H133.512L132.989 25.4041Z" fill="black"/>
<path d="M139.495 28.615L137.833 26.355H137.081V28.615H136.289V23.4655H137.961C138.164 23.4536 138.367 23.4822 138.558 23.5494C138.749 23.6166 138.924 23.721 139.072 23.8563C139.221 23.9916 139.34 24.155 139.422 24.3365C139.503 24.5179 139.546 24.7138 139.547 24.9119C139.555 25.1994 139.469 25.4818 139.304 25.7194C139.138 25.957 138.899 26.1378 138.623 26.2363L140.427 28.6177L139.495 28.615ZM137.824 24.1277H137.083V25.6922H137.824C137.938 25.7059 138.052 25.6959 138.162 25.663C138.271 25.6299 138.372 25.5746 138.458 25.5006C138.544 25.4266 138.612 25.3358 138.66 25.2339C138.707 25.1321 138.731 25.0216 138.731 24.9099C138.731 24.7982 138.707 24.6878 138.66 24.5859C138.612 24.4841 138.544 24.3932 138.458 24.3192C138.372 24.2453 138.271 24.1899 138.162 24.1569C138.052 24.1239 137.938 24.1139 137.824 24.1277Z" fill="black"/>
<path d="M142.837 24.1377V28.617H142.031V24.1377H140.336V23.4668H144.534V24.1403L142.837 24.1377Z" fill="black"/>
<path d="M150.725 28.6151L150.509 26.2871C150.476 25.9396 150.441 25.4962 150.427 25.1187H150.412C150.244 25.4815 149.987 25.981 149.814 26.3111L148.591 28.6538H148.292L147.051 26.3111C146.868 25.9716 146.641 25.5108 146.461 25.1314H146.441C146.426 25.5275 146.386 25.9816 146.363 26.2871L146.157 28.6151H145.445L145.9 23.4629H146.395L147.806 26.1143C148.02 26.5145 148.293 27.0407 148.466 27.4354H148.484C148.647 27.0407 148.903 26.5425 149.126 26.1143L150.517 23.4629H151.017L151.489 28.6151H150.725Z" fill="black"/>
<path d="M152.812 28.617V23.4668H155.662V24.1403H153.617V25.6962H155.33V26.363H153.617V27.9454H155.951V28.6177L152.812 28.617Z" fill="black"/>
<path d="M161.567 28.7297L159.092 26.0896C158.693 25.6694 158.239 25.1513 157.873 24.7318L157.857 24.7412C157.873 25.208 157.873 25.6448 157.873 26.0336V28.617H157.072V23.4668H157.626L159.892 25.8889C160.198 26.2223 160.679 26.7378 161.003 27.1246L161.018 27.1179C161.003 26.7178 161.003 26.2756 161.003 25.9035V23.4668H161.805V28.735L161.567 28.7297Z" fill="black"/>
<path d="M165.301 24.1377V28.617H164.498V24.1377H162.802V23.4668H167V24.1403L165.301 24.1377Z" fill="black"/>
<path d="M118.29 36.7863C117.81 36.7929 117.338 36.6738 116.923 36.4415L116.74 35.5839C117.197 35.9217 117.755 36.1062 118.329 36.1101C118.917 36.1101 119.306 35.7874 119.306 35.3098C119.306 34.865 119.025 34.565 118.389 34.3656C117.444 34.0654 116.946 33.5486 116.946 32.8378C116.95 32.6348 116.999 32.435 117.088 32.2513C117.177 32.0677 117.304 31.9042 117.462 31.7717C117.62 31.6391 117.804 31.5403 118.003 31.4817C118.203 31.423 118.413 31.4059 118.619 31.4314C119.024 31.4206 119.424 31.5261 119.769 31.7348L119.612 32.377C119.306 32.184 118.95 32.0803 118.586 32.0782C118.481 32.0658 118.376 32.0743 118.274 32.1034C118.172 32.1324 118.078 32.1813 117.997 32.247C117.916 32.3129 117.848 32.3942 117.801 32.4859C117.752 32.5778 117.725 32.6782 117.717 32.7811C117.717 33.1198 118.015 33.3946 118.57 33.5814C119.488 33.8881 120.11 34.3676 120.11 35.2391C120.11 36.1587 119.481 36.7863 118.289 36.7863" fill="black"/>
<path d="M123.188 32.2078V36.6918H122.385V32.2078H120.688V31.541H124.883V32.2078H123.188Z" fill="black"/>
<path d="M128.203 36.7876C127.663 36.7771 127.138 36.6113 126.695 36.3109C126.251 36.0106 125.907 35.5891 125.708 35.0992C125.509 34.6094 125.462 34.0731 125.574 33.5574C125.685 33.0418 125.951 32.5698 126.336 32.2007C126.722 31.8315 127.211 31.5817 127.742 31.4825C128.272 31.3832 128.821 31.4389 129.319 31.6427C129.817 31.8465 130.243 32.1892 130.542 32.6279C130.841 33.0666 131.001 33.5818 131.002 34.1088C131.004 34.4654 130.931 34.8187 130.791 35.1478C130.65 35.4769 130.444 35.7751 130.183 36.0249C129.921 36.2747 129.612 36.4708 129.272 36.6018C128.932 36.7328 128.569 36.796 128.203 36.7876ZM128.203 32.1149C127.795 32.1016 127.392 32.2077 127.045 32.4196C126.699 32.6315 126.426 32.9396 126.26 33.3043C126.094 33.6688 126.044 34.0735 126.116 34.466C126.188 34.8586 126.379 35.2212 126.663 35.5075C126.948 35.7937 127.314 35.9903 127.714 36.0723C128.114 36.1543 128.53 36.1176 128.909 35.9672C129.287 35.8168 129.61 35.5595 129.838 35.2283C130.066 34.897 130.187 34.5069 130.185 34.1081C130.194 33.8491 130.15 33.5908 130.054 33.349C129.958 33.1071 129.814 32.8866 129.629 32.7005C129.444 32.5144 129.222 32.3667 128.977 32.266C128.732 32.1655 128.469 32.114 128.203 32.1149Z" fill="black"/>
<path d="M135.158 36.6949L133.492 34.4275H132.746V36.6949H131.954V31.5414H133.629C133.832 31.5303 134.034 31.5594 134.225 31.6269C134.416 31.6944 134.591 31.7991 134.74 31.9343C134.888 32.0696 135.007 32.2328 135.089 32.4141C135.171 32.5954 135.214 32.791 135.217 32.9891C135.224 33.2765 135.138 33.5587 134.972 33.7961C134.806 34.0334 134.567 34.2137 134.29 34.3115L136.095 36.6949H135.158ZM133.485 32.2029H132.748V33.7714H133.485C133.599 33.7851 133.715 33.7751 133.824 33.742C133.934 33.7089 134.035 33.6535 134.121 33.5793C134.207 33.5051 134.276 33.414 134.323 33.3119C134.371 33.2099 134.395 33.0991 134.395 32.9871C134.395 32.8751 134.371 32.7645 134.323 32.6624C134.276 32.5603 134.207 32.4691 134.121 32.395C134.035 32.3208 133.934 32.2654 133.824 32.2323C133.715 32.1991 133.599 32.1891 133.485 32.2029Z" fill="black"/>
<path d="M136.961 36.6926V31.5391H139.808V32.2059H137.767V33.7671H139.479V34.4393H137.767V36.0204H140.1V36.6873L136.961 36.6926Z" fill="black"/>
<path d="M52.7006 22.8564C47.2269 22.8564 43.9432 26.0954 43.9432 30.1026C43.9432 34.0971 47.2241 37.3294 52.7006 37.3294C58.1771 37.3294 61.4588 34.0978 61.4588 30.1026C61.4588 26.0954 58.1778 22.8564 52.7006 22.8564ZM52.7006 35.7756C50.0799 35.7756 48.0875 33.2322 48.0875 30.1026C48.0875 26.973 50.0799 24.4143 52.7006 24.4143C55.3213 24.4143 57.3268 26.965 57.3268 30.1026C57.3268 33.2402 55.3288 35.7756 52.7006 35.7756Z" fill="black"/>
<path d="M62.209 24.9965H67.9732V36.7333H72.3137V24.9965H77.1743V23.3887H62.209V24.9965Z" fill="black"/>
<path d="M78.7643 24.9965H83.627V36.7333H87.9651V24.9965H93.7355V23.3887H78.7664L78.7643 24.9965Z" fill="black"/>
<path d="M35.3062 34.3422V23.3896H31.1367V35.1384C31.1397 35.5632 31.315 35.9693 31.6242 36.2683C31.9335 36.5672 32.3514 36.7345 32.7867 36.7336H43.456V35.1332H36.1313C35.9146 35.1344 35.7061 35.0519 35.5515 34.9037C35.397 34.7555 35.3087 34.5536 35.3062 34.3422Z" fill="black"/>
<path d="M96.0946 24.9822V35.1385C96.0979 35.5642 96.2734 35.9713 96.5841 36.2704C96.8941 36.5696 97.3139 36.7364 97.7502 36.7344H109.121V35.1539H101.104C100.995 35.1561 100.888 35.1372 100.786 35.0982C100.685 35.0593 100.592 35.0012 100.514 34.9271C100.437 34.8531 100.375 34.7647 100.332 34.667C100.29 34.5693 100.268 34.4644 100.267 34.3583V30.4298H108.992V28.874H100.267V25.7604C100.268 25.6544 100.291 25.5498 100.333 25.4524C100.376 25.355 100.438 25.2668 100.516 25.1928C100.594 25.1189 100.686 25.0607 100.787 25.0216C100.888 24.9824 100.996 24.9632 101.104 24.9648H109.121V23.3897H97.7502C97.5337 23.3878 97.3197 23.4275 97.1196 23.5065C96.9195 23.5856 96.7367 23.7024 96.5833 23.8504C96.4292 23.9984 96.307 24.1745 96.2233 24.3688C96.1389 24.563 96.0954 24.7715 96.0946 24.9822Z" fill="black"/>
<path d="M13.6976 40.4784C12.7995 40.4807 11.9098 40.3094 11.0801 39.9741C10.2503 39.6388 9.49696 39.1463 8.86359 38.5251L4.99887 34.754C3.71886 33.5024 3 31.8066 3 30.0386C3 28.2706 3.71886 26.5748 4.99887 25.3232L8.86427 21.5528C10.1461 20.3022 11.8847 19.5996 13.6976 19.5996C15.5104 19.5996 17.249 20.3022 18.5308 21.5528L22.3962 25.3232C23.6763 26.5749 24.3952 28.2708 24.3952 30.039C24.3952 31.807 23.6763 33.503 22.3962 34.7546L18.5308 38.5251C17.8976 39.1463 17.1443 39.6388 16.3147 39.9741C15.4851 40.3094 14.5955 40.4808 13.6976 40.4784ZM13.4412 23.2539C13.1167 23.247 12.7942 23.3042 12.4931 23.4222C12.192 23.5403 11.9186 23.7167 11.6893 23.9408C10.7249 24.8744 10.5471 26.5069 10.5676 27.7113C10.5765 28.2194 10.7044 32.7454 12.6353 35.1608C12.9143 35.518 13.2508 35.8286 13.632 36.0804C14.0985 36.4038 14.6557 36.5793 15.228 36.5832C15.4291 36.5821 15.6297 36.5634 15.8274 36.5272C15.8369 36.5258 15.8463 36.5238 15.8555 36.5212C16.9751 36.2685 18.1959 35.2608 19.1214 33.8258C19.1638 33.7602 19.1925 33.6873 19.2058 33.6109C19.2191 33.5346 19.2166 33.4563 19.1986 33.381C19.1721 33.2671 19.1116 33.1635 19.0247 33.0833C18.9378 33.003 18.8285 32.9497 18.7105 32.9301C18.5925 32.9105 18.4713 32.9254 18.362 32.973C18.2528 33.0206 18.1605 33.0987 18.0968 33.1975C17.5481 34.1828 16.6643 34.9504 15.5977 35.3682C15.4771 35.3896 15.3548 35.4008 15.2321 35.4015C14.8952 35.3994 14.5678 35.2915 14.2984 35.0941C14.027 34.9132 13.7876 34.6905 13.5896 34.4346C12.2225 32.7207 11.8062 29.3891 11.7768 27.6906C11.7529 26.3128 12.0243 25.2786 12.541 24.777C12.6598 24.662 12.8015 24.5719 12.9574 24.5126C13.1134 24.4531 13.2801 24.4256 13.4474 24.4316H13.5533C13.7203 24.4256 13.8867 24.4532 14.0423 24.5126C14.1978 24.572 14.3393 24.662 14.4576 24.777C14.9744 25.2778 15.2458 26.3108 15.2219 27.6906C15.2469 29.5441 14.7552 31.3694 13.7994 32.9714C13.7206 33.1057 13.6989 33.2646 13.739 33.4142C13.7791 33.5638 13.8779 33.6921 14.0139 33.7714C14.15 33.8507 14.3125 33.8748 14.4666 33.8385C14.6206 33.8021 14.7539 33.7083 14.8377 33.577C15.8675 31.7833 16.415 29.7644 16.429 27.7086C16.4501 26.5042 16.2724 24.8724 15.3073 23.9382C15.0775 23.7138 14.8035 23.5373 14.5017 23.4192C14.2001 23.3011 13.877 23.244 13.5519 23.2513L13.4412 23.2539ZM10.999 35.2575H10.9668C10.7911 35.2652 10.6255 35.3396 10.5052 35.4648C10.385 35.59 10.3196 35.7562 10.3232 35.9277C10.3268 36.0993 10.3989 36.2626 10.5243 36.383C10.6497 36.5034 10.8183 36.5711 10.9942 36.5718H11.0222C11.1977 36.5643 11.3632 36.4902 11.4835 36.3653C11.6039 36.2404 11.6694 36.0746 11.6663 35.9033C11.6631 35.7319 11.5915 35.5686 11.4668 35.4479C11.342 35.3273 11.1746 35.259 10.999 35.2575Z" fill="black"/>
</g>
<defs>
<clipPath id="clip0_5_1275">
<rect width="164" height="32" fill="white" transform="translate(3 14)"/>
</clipPath>
</defs>
</svg>
