<svg width="172" height="60" viewBox="0 0 172 60" fill="none" xmlns="http://www.w3.org/2000/svg">
<g clip-path="url(#clip0_140_1006)">
<path d="M20.9826 36.8602H8.3028L11.2093 32.4635H19.0863L21.9629 28.0826H4.38933L1.52573 32.4635H5.74344L0 41.2448H23.6083L32.5748 27.4694L35.8187 32.4579H33.0207L30.1604 36.8608H38.6914L41.5615 41.2455H47.0046L32.5748 19.1416L20.9826 36.8602ZM10.1087 19.3051L7.25488 23.686L25.8959 23.6797L28.753 19.3051H10.1087Z" fill="black"/>
<path d="M166.665 19.2498V19.629H167.57V21.4896H168.019V19.629H168.924V19.2498H166.665ZM171.64 19.2498L170.75 20.5832L169.845 19.2498H169.453V21.4814H169.845V20.102L169.805 19.8618L169.942 20.0863L170.678 21.2103H170.758L171.495 20.102L171.599 19.8618V21.482H172V19.2485L171.64 19.2498ZM66.7429 36.5909C66.7429 37.947 66.2541 39.1257 65.2848 40.0705C64.2993 41.0165 63.0979 41.497 61.7042 41.497H55.7683C54.342 41.497 53.1485 41.0316 52.1955 40.117C51.2581 39.2025 50.777 38.0709 50.777 36.6758V34.397H54.4382L54.9993 36.5054C55.2398 37.3891 55.8561 37.8307 56.8572 37.8307H60.8948C61.4077 37.8307 61.8082 37.6445 62.1287 37.3036C62.4329 36.9394 62.585 36.4746 62.585 35.9393V33.4284C62.585 32.2037 62.0325 31.5678 60.8948 31.5678H55.8158C54.4383 31.5678 53.2525 31.1024 52.2514 30.1652C51.2821 29.1884 50.777 28.026 50.777 26.6617V23.3596C50.777 22.0343 51.2821 20.8876 52.2514 19.9259C53.2525 18.9655 54.4376 18.5 55.8158 18.5H61.7042C63.0979 18.5 64.2837 18.9573 65.2445 19.8561C66.2144 20.7713 66.6708 21.9179 66.6708 23.2979V25.3597H63.0336L62.4888 23.4916C62.2008 22.5922 61.5677 22.1582 60.6387 22.1582H56.6654C56.1363 22.1582 55.728 22.3444 55.4153 22.7086C55.0948 23.0576 54.9512 23.5074 54.9512 24.0653V26.0026C54.9512 27.2039 55.52 27.809 56.6654 27.809H61.7035C63.0817 27.809 64.2837 28.2896 65.253 29.2657C66.2541 30.2344 66.7429 31.3666 66.7429 32.7V36.5909ZM87.5091 28.1757C87.5091 29.5161 86.9968 30.6715 86.0113 31.6244C85.0102 32.5855 83.8004 33.0661 82.4144 33.0661H75.8772V41.4989H71.6712V18.5025H82.4137C83.7997 18.5025 85.0095 18.9831 86.0106 19.9284C86.9961 20.8738 87.5084 22.0211 87.5084 23.3463L87.5091 28.1757ZM81.5894 22.2148H75.8778V29.3456H81.5894L82.807 28.811C83.1191 28.4543 83.2712 28.0122 83.2712 27.4467V24.0986C83.2712 23.5401 83.1191 23.1142 82.807 22.7501L81.5894 22.2148ZM124.801 41.5002L120.939 32.5088H116.95V41.5002H112.737V18.5031H123.255C124.665 18.5031 125.851 18.9837 126.828 19.9215C127.805 20.8826 128.31 22.0374 128.31 23.3476V27.3542C128.31 28.4009 128.006 29.3469 127.421 30.1759C126.804 31.0131 126.035 31.61 125.089 31.9899L129.271 41.5002H124.801ZM122.462 22.2154H116.95V28.7883H122.462L123.624 28.277C123.944 27.9279 124.088 27.4863 124.088 26.9284V24.0917C124.088 23.5571 123.944 23.1149 123.624 22.7431L122.462 22.2154ZM147.298 22.211H141.202V41.4958H137.004V22.211H130.948V18.5063H147.297L147.298 22.211ZM166.343 36.5909C166.343 37.947 165.847 39.1257 164.885 40.0705C163.884 41.0165 162.691 41.497 161.281 41.497H155.345C153.935 41.497 152.749 41.0316 151.78 40.117C150.843 39.2025 150.354 38.0709 150.354 36.6758V34.397H154.023L154.568 36.5054C154.824 37.3891 155.449 37.8307 156.442 37.8307H160.479C160.713 37.835 160.946 37.7901 161.16 37.6991C161.375 37.6081 161.566 37.4731 161.721 37.3036C162.026 36.9394 162.154 36.4746 162.154 35.9393V33.4284C162.154 32.2037 161.609 31.5678 160.48 31.5678H155.417C154.023 31.5678 152.821 31.1024 151.844 30.1652C150.867 29.1884 150.354 28.026 150.354 26.6617V23.3596C150.354 22.0343 150.867 20.8876 151.844 19.9259C152.821 18.9655 154.023 18.5 155.417 18.5H161.281C162.691 18.5 163.868 18.9573 164.83 19.8561C165.783 20.7713 166.271 21.9179 166.271 23.2979V25.3597H162.626L162.066 23.4916C161.777 22.5922 161.16 22.1582 160.224 22.1582H156.234C155.721 22.1582 155.289 22.3444 155 22.7086C154.68 23.0576 154.535 23.5074 154.535 24.0653V26.0026C154.535 27.2039 155.104 27.809 156.234 27.809H161.281C162.674 27.809 163.852 28.2896 164.83 29.2657C165.847 30.2344 166.343 31.3666 166.343 32.7V36.5909ZM101.739 22.211H97.7016L96.4678 22.7457C96.1792 23.1105 96.0192 23.552 96.0192 24.1024V35.8833C96.0192 36.4261 96.1792 36.8601 96.4678 37.2249L97.7016 37.7979H101.739L102.956 37.2249C103.277 36.8601 103.437 36.4261 103.437 35.8839V24.1024C103.437 23.552 103.277 23.1105 102.956 22.7457L101.739 22.211ZM107.627 36.5582C107.627 37.9533 107.138 39.1157 106.153 40.0692C105.143 41.007 103.974 41.4951 102.548 41.4951H96.8682C95.466 41.4951 94.2484 41.007 93.2798 40.0692C92.3021 39.1157 91.7892 37.9533 91.7892 36.5582V23.335C91.7892 22.033 92.3021 20.87 93.2792 19.9247C94.2484 18.9711 95.466 18.5063 96.8682 18.5063H102.548C103.974 18.5063 105.143 18.9717 106.153 19.9089C107.138 20.8392 107.627 22.0097 107.627 23.335V36.5582Z" fill="black"/>
</g>
<defs>
<clipPath id="clip0_140_1006">
<rect width="172" height="23" fill="white" transform="translate(0 18.5)"/>
</clipPath>
</defs>
</svg>
