<svg width="150" height="150" viewBox="0 0 150 150" fill="none" xmlns="http://www.w3.org/2000/svg">
<path d="M16 57C16 56.4477 16.4477 56 17 56H33.0838C34.925 56 36.6642 56.8453 37.8017 58.2931L41.1997 62.6178C41.3893 62.8591 41.6792 63 41.986 63H113C113.552 63 114 63.4477 114 64V126C114 126.552 113.552 127 113 127H17C16.4477 127 16 126.552 16 126V57Z" fill="white"/>
<path fill-rule="evenodd" clip-rule="evenodd" d="M17 56.5C16.7239 56.5 16.5 56.7239 16.5 57V126C16.5 126.276 16.7239 126.5 17 126.5H113C113.276 126.5 113.5 126.276 113.5 126V64C113.5 63.7239 113.276 63.5 113 63.5H41.986C41.5257 63.5 41.0909 63.2887 40.8066 62.9267L37.4085 58.602C36.3658 57.2749 34.7715 56.5 33.0838 56.5H17ZM15.5 57C15.5 56.1716 16.1716 55.5 17 55.5H33.0838C35.0784 55.5 36.9626 56.4158 38.1949 57.9842L41.5929 62.3089C41.6877 62.4296 41.8326 62.5 41.986 62.5H113C113.828 62.5 114.5 63.1716 114.5 64V126C114.5 126.828 113.828 127.5 113 127.5H17C16.1716 127.5 15.5 126.828 15.5 126V57Z" fill="#555555"/>
<path d="M40.7002 93.4076C40.8886 93.1513 41.1877 93 41.5058 93H137.023C137.843 93 138.315 93.932 137.829 94.5924L114.3 126.592C114.111 126.849 113.812 127 113.494 127H17.9764C17.1567 127 16.6852 126.068 17.1708 125.408L40.7002 93.4076Z" fill="#F5F5F5"/>
<path fill-rule="evenodd" clip-rule="evenodd" d="M40.2973 93.1114C40.5799 92.727 41.0286 92.5 41.5057 92.5H137.023C138.253 92.5 138.96 93.898 138.232 94.8886L114.702 126.889C114.42 127.273 113.971 127.5 113.494 127.5H17.9763C16.7468 127.5 16.0395 126.102 16.7678 125.111L40.2973 93.1114ZM41.5057 93.5C41.3467 93.5 41.1971 93.5757 41.1029 93.7038L17.5735 125.704C17.3307 126.034 17.5665 126.5 17.9763 126.5H113.494C113.653 126.5 113.802 126.424 113.897 126.296L137.426 94.2962C137.669 93.966 137.433 93.5 137.023 93.5H41.5057Z" fill="#555555"/>
<path d="M107.197 75.7883C121.715 75.5739 133.799 64.3116 134.63 49.7671C135.501 34.5384 123.706 21.4783 108.286 20.5966C92.8662 19.7148 79.6598 31.3453 78.789 46.5739C78.2819 55.4407 82.0685 63.5723 88.3645 68.993L83.9801 78.2589L107.197 75.7883Z" fill="#F2F4FF"/>
<path fill-rule="evenodd" clip-rule="evenodd" d="M108.258 21.0962C93.1074 20.2298 80.1428 31.6557 79.2881 46.6028C78.7904 55.3063 82.5064 63.2899 88.6906 68.6144L88.9793 68.8629L84.8131 77.6678L107.167 75.2891L107.189 75.2887C121.452 75.0781 133.315 64.0145 134.131 49.7389C134.986 34.7918 123.408 21.9625 108.258 21.0962ZM78.2897 46.5458C79.1766 31.0355 92.6249 19.2006 108.315 20.0978C124.005 20.995 136.016 34.2858 135.129 49.796C134.283 64.6018 121.99 76.0586 107.227 76.2883L83.147 78.8507L87.7507 69.1214C81.5155 63.6061 77.7811 55.44 78.2897 46.5458Z" fill="#555555"/>
<path d="M110 48C110 49.6569 108.657 51 107 51C105.343 51 104 49.6569 104 48C104 46.3431 105.343 45 107 45C108.657 45 110 46.3431 110 48Z" fill="#4267EB"/>
<path d="M98 48C98 49.6569 96.6569 51 95 51C93.3431 51 92 49.6569 92 48C92 46.3431 93.3431 45 95 45C96.6569 45 98 46.3431 98 48Z" fill="#4267EB"/>
<path d="M122 48C122 49.6569 120.657 51 119 51C117.343 51 116 49.6569 116 48C116 46.3431 117.343 45 119 45C120.657 45 122 46.3431 122 48Z" fill="#4267EB"/>
</svg>
