<svg width="30" height="31" viewBox="0 0 30 31" fill="none" xmlns="http://www.w3.org/2000/svg">
<path d="M8.475 13.9323C8.9 13.9323 9.25625 13.7925 9.54375 13.513C9.83125 13.2335 9.975 12.8871 9.975 12.4739C9.975 12.0607 9.83125 11.7144 9.54375 11.4349C9.25625 11.1553 8.9 11.0156 8.475 11.0156C8.05 11.0156 7.69375 11.1553 7.40625 11.4349C7.11875 11.7144 6.975 12.0607 6.975 12.4739C6.975 12.8871 7.11875 13.2335 7.40625 13.513C7.69375 13.7925 8.05 13.9323 8.475 13.9323ZM15.1125 13.9323C15.5375 13.9323 15.8938 13.7925 16.1813 13.513C16.4688 13.2335 16.6125 12.8871 16.6125 12.4739C16.6125 12.0607 16.4688 11.7144 16.1813 11.4349C15.8938 11.1553 15.5375 11.0156 15.1125 11.0156C14.6875 11.0156 14.3313 11.1553 14.0438 11.4349C13.7563 11.7144 13.6125 12.0607 13.6125 12.4739C13.6125 12.8871 13.7563 13.2335 14.0438 13.513C14.3313 13.7925 14.6875 13.9323 15.1125 13.9323ZM21.4875 13.9323C21.9125 13.9323 22.2688 13.7925 22.5563 13.513C22.8438 13.2335 22.9875 12.8871 22.9875 12.4739C22.9875 12.0607 22.8438 11.7144 22.5563 11.4349C22.2688 11.1553 21.9125 11.0156 21.4875 11.0156C21.0625 11.0156 20.7063 11.1553 20.4188 11.4349C20.1313 11.7144 19.9875 12.0607 19.9875 12.4739C19.9875 12.8871 20.1313 13.2335 20.4188 13.513C20.7063 13.7925 21.0625 13.9323 21.4875 13.9323ZM0 30.0833V3.10413C0 2.5451 0.225 2.04076 0.675 1.59111C1.125 1.14145 1.65 0.916626 2.25 0.916626H27.75C28.325 0.916626 28.8438 1.14145 29.3063 1.59111C29.7688 2.04076 30 2.5451 30 3.10413V22.0625C30 22.6215 29.7688 23.1258 29.3063 23.5755C28.8438 24.0251 28.325 24.25 27.75 24.25H6L0 30.0833ZM2.25 24.7968L5.0625 22.0625H27.75V3.10413H2.25V24.7968Z" fill="white"/>
</svg>
