<svg width="82" height="82" viewBox="0 0 82 82" fill="none" xmlns="http://www.w3.org/2000/svg">
<rect x="1" y="1" width="80" height="80" rx="40" fill="white"/>
<path fill-rule="evenodd" clip-rule="evenodd" d="M43.5397 24.822C43.1863 23.7365 42.1596 23 41 23C39.8404 23 38.8137 23.7365 38.4603 24.822L35.1463 35H24.8826L22.1859 27.3804C21.7021 26.0134 20.1823 25.2907 18.7913 25.7661C17.4003 26.2416 16.6649 27.7353 17.1487 29.1023L19.236 35H16.9024C15.8518 35 15 35.8954 15 37C15 38.1046 15.8518 39 16.9024 39H20.6517L22.0674 43H18.1707C17.12 43 16.2683 43.8954 16.2683 45C16.2683 46.1046 17.12 47 18.1707 47H23.483L27.8151 59.2403C28.192 60.3052 29.2198 61.0139 30.367 60.9998C31.5143 60.9857 32.5237 60.252 32.8734 59.178L36.8386 47H45.1614L49.1266 59.178C49.4763 60.252 50.4857 60.9857 51.633 60.9998C52.7802 61.0139 53.808 60.3052 54.1849 59.2403L58.517 47H63.8293C64.88 47 65.7317 46.1046 65.7317 45C65.7317 43.8954 64.88 43 63.8293 43H59.9326L61.3483 39H65.0976C66.1482 39 67 38.1046 67 37C67 35.8954 66.1482 35 65.0976 35H62.764L64.8513 29.1023C65.3351 27.7353 64.5997 26.2416 63.2087 25.7661C61.8177 25.2907 60.2979 26.0134 59.8141 27.3804L57.1174 35H46.8537L43.5397 24.822ZM41.2542 35L41 34.2194L40.7458 35H41.2542ZM39.4434 39H42.5566L43.859 43H38.141L39.4434 39ZM33.8439 39H26.2983L27.7139 43H32.5414L33.8439 39ZM31.239 47H29.1296L30.2283 50.1043L31.239 47ZM49.4586 43L48.1561 39H55.7017L54.2861 43H49.4586ZM50.761 47L51.7717 50.1043L52.8704 47H50.761Z" fill="#A8B1CE"/>
<rect x="1" y="1" width="80" height="80" rx="40" stroke="#F2F4FF"/>
</svg>
