<svg width="82" height="82" viewBox="0 0 82 82" fill="none" xmlns="http://www.w3.org/2000/svg">
<rect x="1" y="1" width="80" height="80" rx="40" fill="white"/>
<rect x="1" y="1" width="80" height="80" rx="40" stroke="#F2F4FF"/>
<path d="M36.84 65L36.24 59.2741C34.4 58.7174 32.72 57.9818 31.2 57.0673C29.68 56.1527 28.36 55.1785 27.24 54.1447L22.2 56.5305L18 50.0888L22.56 46.5101C22.16 44.9992 21.96 43.349 21.96 41.5596C21.96 39.7703 22.16 38.1201 22.56 36.6091L18 33.0305L22.2 26.4695L27.24 28.8553C28.36 27.901 29.68 26.9666 31.2 26.052C32.72 25.1375 34.4 24.4019 36.24 23.8452L36.84 18H44.04L44.76 23.8452C46.6 24.4019 48.28 25.1375 49.8 26.052C51.32 26.9666 52.64 27.901 53.76 28.8553L58.8 26.4695L63 33.0305L58.44 36.6091C58.84 38.1201 59.04 39.7703 59.04 41.5596C59.04 43.349 58.84 44.9992 58.44 46.5101L63 50.0888L58.8 56.5305L53.76 54.1447C52.64 55.1785 51.32 56.1527 49.8 57.0673C48.28 57.9818 46.6 58.7174 44.76 59.2741L44.04 65H36.84ZM40.44 53.6675C43.96 53.6675 46.88 52.5144 49.2 50.2081C51.52 47.9019 52.68 44.9992 52.68 41.5C52.68 38.0008 51.52 35.0981 49.2 32.7919C46.88 30.4856 43.96 29.3325 40.44 29.3325C36.92 29.3325 34 30.4856 31.68 32.7919C29.36 35.0981 28.2 38.0008 28.2 41.5C28.2 44.9992 29.36 47.9019 31.68 50.2081C34 52.5144 36.92 53.6675 40.44 53.6675Z" fill="#A8B1CE"/>
</svg>
