<svg width="80" height="80" viewBox="0 0 80 80" fill="none" xmlns="http://www.w3.org/2000/svg">
<path d="M64.2955 18.7784C64.2955 18.7784 57.321 18.6318 51.2079 20.6701C45.4984 15 30.9834 15 30.9834 15V23.2705L31.0572 23.383C34.3796 24.8592 36.6929 28.1635 36.6929 32.0103H53.8215H63.3406C65.0092 25.7439 64.2905 18.7784 64.2905 18.7784H64.2955Z" fill="#D8E1F9"/>
<path d="M28.7733 22.6934C28.7438 22.6885 28.7143 22.6836 28.6798 22.6787C28.7093 22.6787 28.7389 22.6885 28.7733 22.6934Z" fill="#D8E1F9"/>
<path d="M28.301 22.6304C28.2616 22.6304 28.2222 22.6206 28.1877 22.6157C28.2271 22.6157 28.2665 22.6255 28.301 22.6304Z" fill="#D8E1F9"/>
<path d="M27.8037 22.5811C27.7643 22.5811 27.725 22.5762 27.6807 22.5713C27.72 22.5713 27.7594 22.5762 27.8037 22.5811Z" fill="#D8E1F9"/>
<path d="M29.2409 22.7866C29.2409 22.7866 29.1966 22.7769 29.1769 22.772C29.1966 22.772 29.2212 22.7817 29.2409 22.7866Z" fill="#D8E1F9"/>
<path d="M29.7044 22.8991C29.7044 22.8991 29.6793 22.8941 29.6643 22.8892C29.6793 22.8892 29.6893 22.8941 29.7044 22.8991Z" fill="#D8E1F9"/>
<path d="M30.158 23.0362C30.158 23.0362 30.1471 23.0362 30.1417 23.0308C30.1471 23.0308 30.1525 23.0308 30.158 23.0362Z" fill="#D8E1F9"/>
<path d="M11 32C11 44.468 18.6143 56.4735 30.0334 59.2825V63.0604C30.0334 63.5813 30.4616 64 30.9833 64H50.0167C50.5433 64 50.9666 63.5764 50.9666 63.0604V59.2825C62.3857 56.4735 70 44.468 70 32H11Z" fill="#F8FBFF" stroke="#464646" stroke-linecap="round" stroke-linejoin="round"/>
<path d="M17.6594 32.0101C17.6594 26.7897 21.9219 22.5566 27.1786 22.5566C32.4353 22.5566 36.6977 26.7897 36.6977 32.0101" stroke="#464646" stroke-linecap="round" stroke-linejoin="round"/>
<path d="M27.1786 27.2886V28.9407" stroke="#B2BAD1" stroke-linecap="round" stroke-linejoin="round"/>
<path d="M32.2729 29.3169L31.2245 30.358" stroke="#B2BAD1" stroke-linecap="round" stroke-linejoin="round"/>
<path d="M22.0844 29.3169L23.1327 30.358" stroke="#B2BAD1" stroke-linecap="round" stroke-linejoin="round"/>
<path d="M51 20.8605C57.0896 18.8582 63.8466 19.0023 63.8466 19.0023C63.8466 19.0023 64.563 25.8444 62.8995 32" stroke="#464646" stroke-linecap="round" stroke-linejoin="round"/>
<path d="M53.8264 32.0103C55.0864 29.0286 54.9388 24.6099 50.9716 20.6701C45.2621 15 30.9834 15 30.9834 15V23.2705" stroke="#464646" stroke-linecap="round" stroke-linejoin="round"/>
<path d="M37.4115 22.0879L45.9758 30.5931" stroke="white" stroke-linecap="round" stroke-linejoin="round"/>
<path d="M43.1211 22.0879V27.758" stroke="white" stroke-linecap="round" stroke-linejoin="round"/>
<mask id="mask0_104_805" style="mask-type:alpha" maskUnits="userSpaceOnUse" x="0" y="0" width="80" height="80">
<rect width="80" height="80" fill="#D9D9D9"/>
</mask>
<g mask="url(#mask0_104_805)">
</g>
</svg>
