<?xml version="1.0" encoding="utf-8"?>
<!-- Generator: Adobe Illustrator 27.5.0, SVG Export Plug-In . SVG Version: 6.00 Build 0)  -->
<svg version="1.1" id="레이어_1" xmlns="http://www.w3.org/2000/svg" xmlns:xlink="http://www.w3.org/1999/xlink" x="0px"
	 y="0px" viewBox="0 0 80 80" style="enable-background:new 0 0 80 80;" xml:space="preserve">
<style type="text/css">
	.st0{fill-rule:evenodd;clip-rule:evenodd;fill:#F3F3F3;}
	.st1{fill-rule:evenodd;clip-rule:evenodd;fill:#555555;}
	.st2{fill-rule:evenodd;clip-rule:evenodd;fill:#FFFFFF;}
	.st3{fill:#D3D6E4;}
	.st4{fill:#FFFFFF;}
</style>
<path class="st0" d="M39.28,15.95c-4.7,0.75-13.43,7.07-13.43,12.07c0,2,3.17,2.19,4.77,2.79c-0.01,0.05-0.01,0.09-0.01,0.14
	l-1.13,17.93c-0.14,2.6,1.7,4.8,4.02,4.8l27.7-1.51c2.32,0,4.16-2.2,4.02-4.8l-2.48-16.42c0-0.05-0.01-0.09-0.01-0.14
	c1.6-0.6,2.08-2.3,2.08-4.29c0-5-8.06-10.56-14.78-10.56C43.31,15.95,43.98,15.19,39.28,15.95z"/>
<path class="st1" d="M43.85,16.32c-1.2-0.09-2.16-0.09-4.46,0.28c-2.19,0.35-5.44,2.04-8.16,4.3c-1.35,1.12-2.54,2.36-3.39,3.6
	c-0.85,1.25-1.32,2.45-1.32,3.52c0,0.54,0.39,0.94,1.36,1.3c0.46,0.17,0.97,0.31,1.5,0.44c0.03,0.01,0.06,0.02,0.09,0.02
	c0.48,0.12,0.98,0.25,1.39,0.4c0.29,0.11,0.46,0.4,0.42,0.7c0,0.03-0.01,0.06-0.01,0.09l0,0.01l0,0l-1.13,17.92c0,0,0,0,0,0
	c-0.12,2.3,1.49,4.1,3.35,4.11l27.69-1.51c0.01,0,0.01,0,0.02,0c0.01,0,0.01,0,0.02,0c1.86,0,3.48-1.79,3.37-4.08l-2.47-16.38
	c0-0.02-0.01-0.04-0.01-0.06c0-0.03,0-0.06-0.01-0.09c-0.04-0.3,0.13-0.6,0.42-0.7c1.17-0.44,1.65-1.71,1.65-3.68
	c0-2.17-1.79-4.64-4.59-6.62c-2.77-1.96-6.33-3.29-9.53-3.29c-2.8,0-4.34-0.13-5.5-0.23C44.29,16.35,44.06,16.33,43.85,16.32z
	 M44.64,15.07c1.15,0.1,2.64,0.22,5.38,0.22c3.52,0,7.34,1.45,10.29,3.53c2.91,2.05,5.15,4.86,5.15,7.69c0,1.85-0.4,3.79-2.02,4.69
	l2.42,16.07c0,0.02,0.01,0.04,0.01,0.06c0.16,2.89-1.89,5.48-4.66,5.49l-27.69,1.51c-0.01,0-0.02,0-0.04,0
	c-2.77,0-4.83-2.59-4.68-5.49l0-0.01l0,0l1.11-17.56c-0.25-0.07-0.52-0.14-0.83-0.22l-0.06-0.02c-0.52-0.13-1.1-0.28-1.63-0.48
	c-1.02-0.38-2.21-1.08-2.21-2.53c0-1.43,0.62-2.9,1.55-4.26c0.94-1.37,2.22-2.7,3.64-3.87c2.82-2.34,6.28-4.18,8.79-4.59
	c2.39-0.38,3.45-0.39,4.77-0.29C44.17,15.03,44.4,15.05,44.64,15.07z"/>
<path class="st2" d="M37.66,19.55c-7.22,0-11.81,3.97-11.81,8.86c0,1.96,1.13,3.61,2.69,4.2c-0.01,0.05-0.01,0.09-0.01,0.14
	l-1.11,17.54c-0.14,2.55,1.66,4.7,3.93,4.7h21.82c2.27,0,4.07-2.15,3.93-4.7l-1.11-17.54c0-0.05-0.01-0.09-0.01-0.14
	c1.56-0.59,2.69-2.25,2.69-4.2c0-4.89-6.56-8.86-13.12-8.12C45.53,20.29,44.88,19.55,37.66,19.55z"/>
<path class="st1" d="M37.66,20.21c-7.02,0-11.16,3.81-11.16,8.2c0,1.71,0.98,3.11,2.26,3.59c0.29,0.11,0.46,0.4,0.42,0.7
	c0,0.03-0.01,0.06-0.01,0.08l0,0.01l-1.11,17.53c0,0,0,0,0,0c-0.12,2.25,1.46,4,3.28,4h21.82c1.82,0,3.4-1.75,3.28-4c0,0,0,0,0,0
	l-1.11-17.53l0-0.01c0-0.03,0-0.06-0.01-0.08c-0.04-0.3,0.13-0.6,0.42-0.7c1.28-0.48,2.26-1.87,2.26-3.59
	c0-2.14-1.44-4.17-3.79-5.61c-2.34-1.43-5.47-2.21-8.61-1.86c-0.17,0.02-0.34-0.03-0.48-0.13c-0.01-0.01-0.03-0.01-0.06-0.02
	c-0.12-0.05-0.38-0.13-0.88-0.22C43.18,20.39,41.25,20.21,37.66,20.21z M45.68,19.61c-0.04-0.02-0.08-0.03-0.12-0.05
	c-0.23-0.09-0.59-0.19-1.15-0.29c-1.12-0.19-3.13-0.38-6.76-0.38c-7.42,0-12.47,4.12-12.47,9.52c0,2.01,1.06,3.79,2.66,4.61
	l-1.09,17.22l0,0.01c-0.15,2.84,1.86,5.39,4.59,5.39h21.82c2.72,0,4.74-2.55,4.59-5.39l-1.09-17.23c1.59-0.82,2.66-2.6,2.66-4.61
	c0-2.76-1.84-5.15-4.41-6.73C52.37,20.12,49.03,19.29,45.68,19.61z"/>
<path class="st3" d="M68.47,60.68c-0.47,4.07-13.84,5.27-29.94,3.41c-16.1-1.86-28.92-5.41-28.38-10.15
	c0.94-8.14,14.62-12.05,30.73-10.19S69.41,52.54,68.47,60.68z"/>
<path class="st4" d="M51.73,46.83c0.53-0.2,1.12,0.07,1.32,0.6c0.03,0.09,0.07,0.18,0.11,0.28c0.23,0.59,0.49,1.26,0.63,2.23
	c0.16,1.12,0.16,2.6-0.1,4.9c-0.06,0.56-0.57,0.96-1.13,0.9c-0.56-0.07-0.96-0.57-0.9-1.13c0.26-2.22,0.24-3.51,0.11-4.38
	c-0.1-0.73-0.28-1.19-0.5-1.77c-0.04-0.1-0.08-0.21-0.12-0.32C50.93,47.62,51.2,47.03,51.73,46.83z"/>
<path class="st4" d="M39.73,44.05c0.54-0.17,1.11,0.13,1.28,0.67c0.5,1.6,1.19,5.75,0.16,10.18c-0.13,0.55-0.68,0.89-1.23,0.76
	c-0.55-0.13-0.89-0.68-0.76-1.23c0.94-4.01,0.3-7.78-0.12-9.1C38.89,44.79,39.19,44.22,39.73,44.05z"/>
<path class="st4" d="M28.64,44.61c-0.2-0.53-0.79-0.8-1.32-0.6s-0.8,0.79-0.6,1.32c0.04,0.11,0.08,0.21,0.12,0.32
	c0.22,0.58,0.4,1.04,0.5,1.77c0.12,0.87,0.15,2.16-0.11,4.38c-0.07,0.56,0.34,1.07,0.9,1.13c0.56,0.07,1.07-0.34,1.13-0.9
	c0.27-2.3,0.26-3.79,0.1-4.9c-0.14-0.97-0.4-1.65-0.63-2.23C28.71,44.79,28.67,44.7,28.64,44.61z"/>
<path class="st1" d="M65.35,61.98c1.49-0.62,1.78-1.19,1.81-1.45c0.38-3.27-1.9-6.64-6.77-9.54c-4.8-2.86-11.74-5.02-19.67-5.94
	c-7.93-0.92-15.18-0.4-20.5,1.29c-5.4,1.72-8.39,4.47-8.77,7.75c-0.06,0.49,0.19,1.2,1.42,2.13c1.21,0.9,3.11,1.8,5.63,2.64
	c5.02,1.67,12.15,3.01,20.17,3.94c7.99,0.92,15.26,1.08,20.54,0.52C61.87,63.02,63.95,62.57,65.35,61.98z M38.52,64.09
	c16.1,1.86,29.47,0.66,29.94-3.41c0.94-8.14-11.49-15.07-27.59-16.93S11.09,45.8,10.15,53.94C9.6,58.68,22.42,62.23,38.52,64.09z"/>
</svg>
