<svg width="392" height="66" viewBox="0 0 392 66" fill="none" xmlns="http://www.w3.org/2000/svg">
<g clip-path="url(#clip0_34_1165)">
<path d="M0 32.7816C0 11.2484 14.7178 0 30.9079 0C47.0979 0 61.2124 11.4239 61.2124 32.8673C61.2124 54.3107 47.1019 66 30.9079 66C14.7138 66 0 54.4005 0 32.7816ZM46.929 32.9571C46.929 18.1934 39.3106 12.3018 30.7389 12.3018C22.1673 12.3018 14.2875 18.1893 14.2875 32.7775C14.2875 47.3657 22.3402 53.6942 30.8234 53.6942C39.3066 53.6942 46.929 47.6311 46.929 32.953V32.9571Z" fill="white"/>
<path d="M68.6616 1.58416H113.25V13.9758H82.2532V26.5429H109.006V38.0567H82.2532V64.424H68.6616V1.58416Z" fill="white"/>
<path d="M120.526 1.58416H165.114V13.9758H134.118V26.5429H160.871V38.0567H134.118V64.424H120.526V1.58416Z" fill="white"/>
<path d="M172.387 1.58416H185.978V64.4199H172.387V1.58416Z" fill="white"/>
<path d="M228.101 63.8932C234.766 61.5211 235.808 60.9045 235.808 53.2614V12.7427C235.808 5.09545 234.77 4.48302 228.101 2.10678V1.58008H270.786L272.343 16.1683H271.824C269.314 9.13752 264.033 3.77668 256.41 3.77668H245.24V29.7031H256.237C260.738 29.7031 264.117 26.8899 265.935 23.8155H266.37V38.4037H265.935C263.944 34.623 260.481 31.7241 256.237 31.8139L245.24 31.9895V58.3568C245.24 60.3779 249.049 62.1376 256.756 62.1376H261C266.888 62.1376 272.081 56.8666 275.46 49.1295H275.979L273.899 64.4199H228.097V63.8932H228.101Z" fill="white"/>
<path d="M285.938 59.6756L284.985 44.9118H285.504C290.439 56.5114 297.8 63.191 305.764 63.191C311.999 63.191 316.243 58.9733 316.243 52.9102C316.243 46.8471 311.48 41.4863 302.39 36.301C291.308 29.9725 285.938 23.9094 285.938 15.8253C285.938 6.50813 292.953 0.534859 303.343 0.534859C308.278 0.534859 313.99 1.85363 319.36 4.14006L321.005 18.2873H320.486C315.635 8.18212 309.578 2.73146 302.824 2.73146C297.197 2.73146 293.472 6.15701 293.472 12.0486C293.472 17.4993 296.678 21.1902 306.891 27.4289C319.963 35.3375 324.034 41.225 324.034 49.2234C324.034 59.9451 316.673 65.4815 305.937 65.4815C299.445 65.4815 293.038 63.4604 285.938 59.6797V59.6756Z" fill="white"/>
<path d="M329.143 63.8932C335.808 61.5211 336.849 60.9046 336.849 53.2614V12.7427C336.849 5.09546 335.812 4.48302 329.143 2.10678V1.58008H353.904V2.10678C347.239 4.47894 346.286 5.09546 346.286 12.7427V28.2985H374.857V12.7427C374.857 5.09546 373.903 4.48302 367.15 2.10678V1.58008H392V2.10678C385.335 4.47894 384.293 5.09546 384.293 12.7427V53.2573C384.293 60.9046 385.331 61.517 392 63.8892V64.4158H367.15V63.8892C373.903 61.517 374.857 60.9005 374.857 53.2573V31.6384H346.286V53.2573C346.286 60.9046 347.239 61.517 353.904 63.8892V64.4158H329.143V63.8892V63.8932Z" fill="white"/>
<path d="M217.968 56.7727C209.397 44.822 205.672 39.3714 201.344 32.7816C210.696 31.2015 217.276 25.1343 217.276 17.0502C217.276 7.82283 208.443 1.58416 194.763 1.58416H191.988V3.78076H193.725C202.816 3.78076 207.836 8.79047 207.836 17.5769C207.836 26.3633 202.9 31.373 194.329 31.373H191.988V33.4838H191.992C198.138 43.6788 204.892 54.0494 211.991 64.4199H225.152V63.8932C222.9 62.3131 219.782 59.3245 217.964 56.7727H217.968Z" fill="white"/>
</g>
<defs>
<clipPath id="clip0_34_1165">
<rect width="392" height="66" fill="white"/>
</clipPath>
</defs>
</svg>
