<svg width="324" height="54" viewBox="0 0 324 54" fill="none" xmlns="http://www.w3.org/2000/svg">
<g clip-path="url(#clip0_34_966)">
<path d="M0 26.8213C0 9.20322 12.1648 0 25.5463 0C38.9279 0 50.5939 9.34686 50.5939 26.8914C50.5939 44.436 38.9312 54 25.5463 54C12.1614 54 0 44.5095 0 26.8213ZM38.7882 26.9649C38.7882 14.8855 32.4914 10.0651 25.4067 10.0651C18.3219 10.0651 11.809 14.8822 11.809 26.8179C11.809 38.7537 18.4649 43.9316 25.4765 43.9316C32.4881 43.9316 38.7882 38.9709 38.7882 26.9616V26.9649Z" fill="#111111"/>
<path d="M56.7511 1.29614H93.6044V11.4347H67.985V21.7169H90.097V31.1373H67.985V52.7106H56.7511V1.29614Z" fill="#111111"/>
<path d="M99.6187 1.29614H136.472V11.4347H110.853V21.7169H132.965V31.1373H110.853V52.7106H99.6187V1.29614Z" fill="#111111"/>
<path d="M142.483 1.29614H153.717V52.7072H142.483V1.29614Z" fill="#111111"/>
<path d="M188.532 52.2763C194.041 50.3355 194.902 49.831 194.902 43.5775V10.4259C194.902 4.16906 194.044 3.66798 188.532 1.72378V1.29285H223.813L225.099 13.2286H224.671C222.596 7.47621 218.231 3.09006 211.931 3.09006H202.698V24.3026H211.788C215.508 24.3026 218.301 22.0009 219.803 19.4855H220.162V31.4213H219.803C218.158 28.3279 215.295 25.9561 211.788 26.0296L202.698 26.1733V47.7465C202.698 49.4001 205.847 50.8399 212.217 50.8399H215.724C220.591 50.8399 224.883 46.5272 227.676 40.1969H228.105L226.386 52.7073H188.529V52.2763H188.532Z" fill="#111111"/>
<path d="M236.337 48.8255L235.549 36.7461H235.978C240.057 46.2366 246.141 51.7017 252.724 51.7017C257.877 51.7017 261.384 48.2509 261.384 43.2902C261.384 38.3295 257.448 33.9433 249.934 29.7008C240.775 24.523 236.337 19.5623 236.337 12.948C236.337 5.32485 242.135 0.437622 250.722 0.437622C254.802 0.437622 259.523 1.51662 263.961 3.38733L265.321 14.9623H264.892C260.882 6.69447 255.875 2.23484 250.293 2.23484C245.642 2.23484 242.564 5.03756 242.564 9.85798C242.564 14.3176 245.213 17.3375 253.655 22.4418C264.46 28.9125 267.824 33.7295 267.824 40.2737C267.824 49.046 261.74 53.5758 252.867 53.5758C247.501 53.5758 242.205 51.9222 236.337 48.8288V48.8255Z" fill="#111111"/>
<path d="M272.046 52.2763C277.555 50.3355 278.416 49.831 278.416 43.5775V10.4259C278.416 4.16906 277.559 3.66798 272.046 1.72378V1.29285H292.513V1.72378C287.004 3.66464 286.216 4.16906 286.216 10.4259V23.1534H309.831V10.4259C309.831 4.16906 309.043 3.66798 303.461 1.72378V1.29285H324V1.72378C318.491 3.66464 317.63 4.16906 317.63 10.4259V43.5742C317.63 49.831 318.488 50.3321 324 52.273V52.7039H303.461V52.273C309.043 50.3321 309.831 49.8277 309.831 43.5742V25.886H286.216V43.5742C286.216 49.831 287.004 50.3321 292.513 52.273V52.7039H272.046V52.273V52.2763Z" fill="#111111"/>
<path d="M180.157 46.4504C173.073 36.6726 169.994 32.2129 166.417 26.8213C174.146 25.5285 179.586 20.5644 179.586 13.9501C179.586 6.4005 172.285 1.29614 160.978 1.29614H158.684V3.09336H160.12C167.634 3.09336 171.783 7.19221 171.783 14.3811C171.783 21.5699 167.703 25.6688 160.619 25.6688H158.684V27.3959H158.687C163.767 35.7372 169.349 44.2222 175.217 52.7072H186.095V52.2763C184.233 50.9835 181.657 48.5382 180.154 46.4504H180.157Z" fill="#111111"/>
</g>
<defs>
<clipPath id="clip0_34_966">
<rect width="324" height="54" fill="white"/>
</clipPath>
</defs>
</svg>
